<mxfile host="app.diagrams.net" modified="2023-12-06T00:26:46.056Z" agent="Mozilla/5.0 (Windows NT 10.0; Win64; x64) AppleWebKit/537.36 (KHTML, like Gecko) Chrome/119.0.0.0 Safari/537.36 Edg/119.0.0.0" etag="QhRVM16Qb7HJqHr4e6SB" version="22.1.5" type="google">
  <diagram name="Page-1" id="f1b7ffb7-ca1e-a977-7cf5-a751b3c06c05">
    <mxGraphModel grid="1" page="1" gridSize="10" guides="1" tooltips="1" connect="1" arrows="1" fold="1" pageScale="1" pageWidth="826" pageHeight="1169" background="#ffffff" math="0" shadow="0">
      <root>
        <mxCell id="0" />
        <mxCell id="1" parent="0" />
        <mxCell id="nUql6APOvvQg6kluZNli-61" value="" style="rounded=1;whiteSpace=wrap;html=1;" vertex="1" parent="1">
          <mxGeometry x="220" y="80" width="360" height="620" as="geometry" />
        </mxCell>
        <mxCell id="nUql6APOvvQg6kluZNli-62" value="Login" style="text;html=1;align=center;verticalAlign=middle;resizable=0;points=[];autosize=1;strokeColor=none;fillColor=none;rotation=0;fontSize=50;" vertex="1" parent="1">
          <mxGeometry x="230" y="118" width="150" height="70" as="geometry" />
        </mxCell>
        <mxCell id="nUql6APOvvQg6kluZNli-66" value="&lt;h1&gt;&lt;span style=&quot;background-color: initial; font-size: 12px; font-weight: normal;&quot;&gt;Lorem ipsum dolor sit amet, consectetur adipisicing elit, sed do eiusmod tempor incididunt ut labore et dolore magna aliqua.&lt;/span&gt;&lt;br&gt;&lt;/h1&gt;" style="text;html=1;strokeColor=none;fillColor=none;spacing=5;spacingTop=-20;whiteSpace=wrap;overflow=hidden;rounded=0;" vertex="1" parent="1">
          <mxGeometry x="230" y="188" width="370" height="80" as="geometry" />
        </mxCell>
        <mxCell id="nUql6APOvvQg6kluZNli-69" value="" style="endArrow=none;html=1;rounded=0;" edge="1" parent="1">
          <mxGeometry width="50" height="50" relative="1" as="geometry">
            <mxPoint x="554" y="188" as="sourcePoint" />
            <mxPoint x="234" y="188" as="targetPoint" />
          </mxGeometry>
        </mxCell>
        <mxCell id="nUql6APOvvQg6kluZNli-70" value="" style="rounded=1;whiteSpace=wrap;html=1;" vertex="1" parent="1">
          <mxGeometry x="260" y="318" width="270" height="60" as="geometry" />
        </mxCell>
        <mxCell id="nUql6APOvvQg6kluZNli-72" value="" style="rounded=1;whiteSpace=wrap;html=1;" vertex="1" parent="1">
          <mxGeometry x="260" y="448" width="270" height="60" as="geometry" />
        </mxCell>
        <mxCell id="nUql6APOvvQg6kluZNli-73" value="Username" style="text;html=1;align=center;verticalAlign=middle;resizable=0;points=[];autosize=1;strokeColor=none;fillColor=none;rotation=0;fontSize=35;" vertex="1" parent="1">
          <mxGeometry x="233" y="253" width="180" height="60" as="geometry" />
        </mxCell>
        <mxCell id="nUql6APOvvQg6kluZNli-74" value="Password" style="text;html=1;align=center;verticalAlign=middle;resizable=0;points=[];autosize=1;strokeColor=none;fillColor=none;rotation=0;fontSize=35;" vertex="1" parent="1">
          <mxGeometry x="233" y="388" width="180" height="60" as="geometry" />
        </mxCell>
        <mxCell id="nUql6APOvvQg6kluZNli-76" value="" style="shape=image;verticalLabelPosition=bottom;labelBackgroundColor=default;verticalAlign=top;aspect=fixed;imageAspect=0;image=https://i.pinimg.com/564x/3d/09/81/3d09815500b9da2ea5823c0c735532ac.jpg;" vertex="1" parent="1">
          <mxGeometry x="490" y="463" width="30" height="30" as="geometry" />
        </mxCell>
        <mxCell id="nUql6APOvvQg6kluZNli-77" value="&lt;font style=&quot;font-size: 12px;&quot;&gt;¿Olvidaste la Contraseña?&lt;/font&gt;" style="text;html=1;align=center;verticalAlign=middle;resizable=0;points=[];autosize=1;strokeColor=none;fillColor=none;rotation=0;fontSize=35;" vertex="1" parent="1">
          <mxGeometry x="413" y="493" width="170" height="60" as="geometry" />
        </mxCell>
        <mxCell id="nUql6APOvvQg6kluZNli-79" value="" style="rounded=0;whiteSpace=wrap;html=1;fillColor=#b0b0b0;" vertex="1" parent="1">
          <mxGeometry x="310" y="568" width="180" height="60" as="geometry" />
        </mxCell>
        <mxCell id="nUql6APOvvQg6kluZNli-80" value="INICIAR SESION" style="text;html=1;strokeColor=none;fillColor=none;align=center;verticalAlign=middle;whiteSpace=wrap;rounded=0;fontSize=20;" vertex="1" parent="1">
          <mxGeometry x="298.75" y="585.5" width="202.5" height="25" as="geometry" />
        </mxCell>
        <mxCell id="nUql6APOvvQg6kluZNli-81" value="" style="ellipse;whiteSpace=wrap;html=1;aspect=fixed;" vertex="1" parent="1">
          <mxGeometry x="344" y="640" width="29" height="29" as="geometry" />
        </mxCell>
        <mxCell id="nUql6APOvvQg6kluZNli-82" value="" style="ellipse;whiteSpace=wrap;html=1;aspect=fixed;" vertex="1" parent="1">
          <mxGeometry x="384" y="640" width="29" height="29" as="geometry" />
        </mxCell>
        <mxCell id="nUql6APOvvQg6kluZNli-84" value="" style="ellipse;whiteSpace=wrap;html=1;aspect=fixed;" vertex="1" parent="1">
          <mxGeometry x="424" y="640" width="29" height="29" as="geometry" />
        </mxCell>
      </root>
    </mxGraphModel>
  </diagram>
</mxfile>
